HIERARCHY
ROOT hip
{
	OFFSET 0.000000 0.000000 0.000000 
	CHANNELS 6 Xposition Yposition Zposition Xrotation Zrotation Yrotation
	JOINT abdomen
	{
		OFFSET 0.000000 3.402643 0.000000 
		CHANNELS 3 Xrotation Zrotation Yrotation
		JOINT chest
		{
			OFFSET 0.000000 8.438565 -0.680529 
			CHANNELS 3 Xrotation Zrotation Yrotation
			JOINT neck
			{
				OFFSET 0.000000 10.207942 -0.272212 
				CHANNELS 3 Xrotation Zrotation Yrotation
				JOINT head
				{
					OFFSET 0.000000 3.130431 0.000000 
					CHANNELS 3 Xrotation Zrotation Yrotation
					End Site
					{
						OFFSET 0.000000 3.130435 0.000000 
					}
				}
			}
			JOINT lCollar
			{
				OFFSET 3.470700 6.669187 -0.816635 
				CHANNELS 3 Yrotation Zrotation Xrotation
				JOINT lShldr
				{
					OFFSET 3.198488 0.000000 0.000000 
					CHANNELS 3 Zrotation Yrotation Xrotation
					JOINT lForeArm
					{
						OFFSET 10.139888 0.000000 0.000000 
						CHANNELS 3 Yrotation Zrotation Xrotation
						JOINT lHand
						{
							OFFSET 8.370511 0.000000 0.000000 
							CHANNELS 3 Zrotation Yrotation Xrotation
							End Site
							{
								OFFSET 4.083176 0.000000 0.000000 
							}
						}
					}
				}
			}
			JOINT rCollar
			{
				OFFSET -3.470700 6.669187 -0.816635 
				CHANNELS 3 Yrotation Zrotation Xrotation
				JOINT rShldr
				{
					OFFSET -3.198488 0.000000 0.000000 
					CHANNELS 3 Zrotation Yrotation Xrotation
					JOINT rForeArm
					{
						OFFSET -10.139888 0.000000 0.000000 
						CHANNELS 3 Yrotation Zrotation Xrotation
						JOINT rHand
						{
							OFFSET -8.370511 0.000000 0.000000 
							CHANNELS 3 Zrotation Yrotation Xrotation
							End Site
							{
								OFFSET -4.083176 0.000000 0.000000 
							}
						}
					}
				}
			}
		}
	}
	JOINT lThigh
	{
		OFFSET 5.308129 -1.633274 1.361059 
		CHANNELS 3 Xrotation Zrotation Yrotation
		JOINT lShin
		{
			OFFSET -2.041588 -20.007561 0.000000 
			CHANNELS 3 Xrotation Zrotation Yrotation
			JOINT lFoot
			{
				OFFSET 0.000000 -19.190928 -1.224953 
				CHANNELS 3 Xrotation Yrotation Zrotation
				End Site
				{
					OFFSET 0.000000 -2.449906 4.627600 
				}
			}
		}
	}
	JOINT rThigh
	{
		OFFSET -5.308129 -1.633274 1.361059 
		CHANNELS 3 Xrotation Zrotation Yrotation
		JOINT rShin
		{
			OFFSET 2.041588 -20.007561 0.000000 
			CHANNELS 3 Xrotation Zrotation Yrotation
			JOINT rFoot
			{
				OFFSET 0.000000 -19.190928 -1.224953 
				CHANNELS 3 Xrotation Yrotation Zrotation
				End Site
				{
					OFFSET 0.000000 -2.449906 4.627600 
				}
			}
		}
	}
}
MOTION
Frames: 13
Frame Time: 0.011111
-0.848659 50.168972 -7.351335 0.447550 -0.213793 36.483990 22.541206 -8.620870 32.591202 -21.258698 -7.907434 9.570953 -18.851152 -6.523842 0.397721 15.859820 11.234416 -0.458119 2.424333 -4.683778 1.783845 -37.221729 -9.561880 -21.426704 -85.969559 1.569811 28.453699 8.524705 12.647240 -47.386116 -2.738486 -1.140572 2.095526 48.459423 62.687134 73.429665 85.904045 -1.682419 28.239780 -8.534408 -12.637552 27.074076 -23.318274 18.417295 -20.584618 21.702005 -5.720038 -3.765014 -5.869220 -7.276589 -4.167114 15.495998 -11.921916 3.718992 15.943088 5.884013 2.938716 -48.400471 -11.947267 -13.048693 
-0.826405 50.190617 -7.372688 0.427863 -0.200839 35.771130 22.596115 -8.339992 32.284248 -21.259230 -7.881799 9.462605 -19.126781 -6.514411 0.393756 16.641439 10.981028 -0.452119 2.424333 -4.683778 1.783845 -37.054771 -9.610392 -21.656857 -85.959747 1.585240 28.413372 8.524705 12.647240 -47.356827 -2.738486 -1.140572 2.095526 48.219639 62.258282 72.862038 85.867035 -1.747710 28.136831 -8.534408 -12.637552 27.152201 -22.948893 18.570812 -20.329407 21.581392 -5.717436 -3.753043 -6.170871 -6.854691 -4.141357 15.282610 -12.166405 3.956379 15.943079 5.884042 2.938719 -47.953281 -12.063359 -12.844274 
-0.801444 50.213776 -7.393437 0.471914 -0.096188 35.010323 22.783943 -8.081446 31.679770 -21.171928 -7.618893 9.267000 -19.375776 -7.085068 0.681319 16.861788 11.256908 -0.108321 2.424333 -4.683778 1.783845 -37.476902 -9.581865 -22.209242 -85.961227 1.586161 28.423075 8.524705 12.647240 -47.141975 -2.738486 -1.140572 2.095526 47.626511 62.162563 72.436150 85.835617 -1.794689 28.045097 -8.534408 -12.637552 27.298687 -22.530935 18.620173 -20.076284 21.542934 -5.709524 -3.748178 -6.522748 -6.385283 -4.096770 15.052456 -12.522636 4.151708 15.911697 5.883620 2.945768 -47.399677 -12.205473 -12.617733 
-0.778289 50.235428 -7.412985 0.500367 -0.028422 34.268818 22.970537 -7.709002 30.980728 -21.124052 -7.458165 9.030468 -19.324953 -7.754648 1.038285 16.528587 11.845893 0.366307 2.424333 -4.683778 1.783845 -37.702728 -9.543171 -22.797436 -85.955421 1.593694 28.402800 8.524705 12.647240 -46.917370 -2.738486 -1.140572 2.095526 47.129978 62.163998 72.078224 85.801514 -1.851479 27.962490 -8.534408 -12.637552 27.347513 -22.169294 18.688292 -19.808144 21.542629 -5.713227 -3.729377 -6.901278 -6.015354 -4.096115 14.858381 -12.845994 4.514596 15.883806 5.874231 2.941982 -47.047199 -12.284323 -12.434430 
-0.748215 50.249264 -7.435841 0.382455 -0.087747 33.564701 23.042194 -7.255433 30.671227 -21.193417 -7.676405 8.910063 -19.158564 -7.789201 1.042026 16.489912 12.085610 0.405741 2.424333 -4.683778 1.783845 -37.221531 -9.669302 -22.940384 -85.945633 1.609089 28.362469 8.524705 12.647240 -46.780647 -2.738486 -1.140572 2.095526 46.955685 61.715233 71.364258 85.765457 -1.906934 27.869869 -8.534408 -12.637552 27.415876 -21.801521 18.953094 -19.537712 21.490110 -5.718644 -3.745347 -7.179760 -5.684902 -4.061875 14.732430 -12.954480 4.877563 15.883789 5.874277 2.941987 -46.682205 -12.357289 -12.268327 
-0.719947 50.266106 -7.464711 0.270818 -0.145382 32.821987 23.088703 -6.949322 30.645262 -21.419199 -8.141060 8.909472 -18.959190 -7.483260 0.801178 16.687382 12.154682 0.133810 2.424333 -4.683778 1.783845 -36.249020 -9.950430 -22.622757 -85.934944 1.624277 28.322159 8.524705 12.647240 -46.702530 -2.738486 -1.140572 2.095526 46.946690 60.914463 70.320488 85.723206 -1.969957 27.767000 -8.534408 -12.637552 27.454935 -21.390657 19.216383 -19.311550 21.416956 -5.729290 -3.731355 -7.481409 -5.233612 -4.003954 14.544993 -13.088957 5.227616 15.883771 5.874326 2.941994 -46.190979 -12.507560 -12.086255 
-0.702805 50.296478 -7.477341 0.513345 0.128163 32.024078 22.853199 -7.224867 29.951582 -21.596090 -8.218359 8.762561 -18.666658 -6.692544 0.643032 16.717997 11.823979 0.152594 2.424333 -4.683778 1.783845 -35.375149 -9.977387 -22.759125 -85.911591 1.665370 28.260412 8.524705 12.647240 -46.653702 -2.738486 -1.140572 2.095526 47.236446 60.493755 69.777161 85.672150 -2.050460 27.662315 -8.534408 -12.637552 27.210796 -20.941935 19.001671 -18.972807 21.288284 -5.719352 -3.707557 -7.770063 -4.730426 -3.939831 14.184418 -13.703730 5.505435 15.863780 5.871164 2.949580 -45.798267 -12.648144 -11.953891 
-0.668221 50.337376 -7.473131 0.820127 0.395327 31.034580 22.440681 -7.613170 29.719841 -21.351585 -8.059946 8.730410 -18.561728 -6.484327 0.485547 16.652830 11.675619 -0.075968 2.424333 -4.683778 1.783845 -34.823479 -10.532325 -22.437305 -85.911842 1.665425 28.260403 8.524705 12.647240 -45.989635 -2.738486 -1.140572 2.095526 46.874039 60.006428 68.554100 85.622292 -2.120193 27.548845 -8.534408 -12.637552 26.908062 -20.389553 18.837458 -18.405325 21.093527 -5.729050 -3.691593 -8.120483 -4.228665 -3.888180 13.657212 -14.397209 5.861171 15.943014 5.884224 2.938742 -45.379986 -12.726382 -11.767924 
-0.641156 50.370457 -7.483357 0.786932 0.474230 29.960833 22.466408 -7.495206 29.577322 -21.254036 -7.969051 8.664274 -18.550415 -6.657345 0.459117 16.655828 11.661779 -0.193023 2.424333 -4.683778 1.783845 -34.547279 -10.873202 -22.348764 -85.911591 1.665370 28.260412 8.524705 12.647240 -45.618542 -2.738486 -1.140572 2.095526 46.283539 59.685547 67.472687 85.567848 -2.198375 27.434801 -8.534408 -12.637552 26.859234 -19.681011 19.030079 -17.854040 20.847975 -5.742162 -3.642619 -8.442122 -3.705375 -3.821904 13.287490 -14.739841 6.277962 16.060923 5.872025 2.977019 -44.830322 -12.859199 -11.545685 
-0.651681 50.383385 -7.507714 0.647670 0.672582 29.248011 23.069735 -7.170677 28.617910 -21.498453 -7.641214 8.384020 -18.752359 -7.308155 0.811296 16.956009 11.777591 0.234111 2.424333 -4.683778 1.783845 -34.872063 -10.688734 -22.865395 -85.911591 1.665370 28.260412 8.524705 12.647240 -45.530647 -2.738486 -1.140572 2.095526 45.497776 59.813946 66.965874 85.518036 -2.269406 27.350487 -8.534408 -12.637552 26.976421 -19.045513 19.078407 -17.545305 20.673325 -5.748652 -3.647272 -8.715359 -3.229643 -3.740491 13.182522 -15.026165 6.532338 16.133297 5.873169 2.984296 -44.385498 -13.042192 -11.404694 
-0.626420 50.406246 -7.500497 0.739380 0.753837 28.332649 22.855286 -7.246883 28.556862 -21.596771 -7.832657 8.385626 -18.577648 -7.067574 0.558559 17.069935 11.846640 -0.123369 2.424333 -4.683778 1.783845 -33.799706 -11.124397 -22.353819 -85.892952 1.697410 28.199198 8.524705 12.647240 -45.491585 -2.738486 -1.140572 2.095526 45.189701 59.081978 65.575310 85.478584 -2.323741 27.277281 -8.534408 -12.637552 26.986189 -18.579639 19.138300 -17.073864 20.572069 -5.751516 -3.609794 -9.062626 -2.827260 -3.683532 12.788892 -15.413256 6.596022 16.142670 5.876084 2.985542 -43.667091 -13.020753 -10.978235 
-0.598151 50.426094 -7.523353 0.736400 0.681214 27.501518 22.734543 -7.103236 28.500322 -21.568760 -8.130819 8.363843 -18.541170 -6.814728 0.293673 17.097477 11.997711 -0.488226 2.424333 -4.683778 1.783845 -32.765152 -11.764642 -21.979456 -85.873299 1.729147 28.138010 8.524705 12.647240 -45.413464 -2.738486 -1.140572 2.095526 44.810368 58.486732 64.057587 85.448067 -2.361017 27.214880 -8.534408 -12.637552 27.083841 -18.243010 19.330927 -16.749535 20.516310 -5.771603 -3.598022 -9.393599 -2.403885 -3.601995 12.449210 -15.602137 6.784542 16.132605 5.875981 2.973922 -43.063343 -12.930193 -10.577053 
-0.581009 50.449551 -7.537488 0.628246 0.641168 26.698290 22.861542 -6.841744 28.132996 -21.569437 -8.135423 8.246748 -18.624018 -6.894053 0.281835 17.123358 12.240530 -0.532210 2.424333 -4.683778 1.783845 -32.291183 -12.211692 -21.938334 -85.867035 1.737076 28.127481 8.524705 12.647240 -45.208382 -2.738486 -1.140572 2.095526 44.255608 58.204018 62.810829 85.403999 -2.423785 27.141081 -8.534408 -12.637552 27.249859 -17.801844 19.560122 -16.464033 20.489323 -5.758604 -3.594249 -9.798966 -1.984707 -3.522602 12.321252 -15.717242 7.221432 16.049871 5.874698 2.966749 -42.660412 -12.972360 -10.377006 
